<svg xmlns="http://www.w3.org/2000/svg" width="15" height="15" viewBox="0 0 15 15"><g transform="translate(0 0)"><path d="M9.017,15H5.982l-.4-1.366a6.4,6.4,0,0,1-1.068-.444l-1.248.686L1.124,11.73l.686-1.248a6.409,6.409,0,0,1-.443-1.068L0,9.017V5.982l1.366-.4a6.4,6.4,0,0,1,.444-1.068L1.124,3.27,3.27,1.124l1.248.686a6.409,6.409,0,0,1,1.068-.443L5.982,0H9.017l.4,1.366a6.4,6.4,0,0,1,1.068.444l1.248-.686L13.876,3.27l-.686,1.248a6.409,6.409,0,0,1,.443,1.068l1.366.4V9.017l-1.366.4a6.4,6.4,0,0,1-.444,1.068l.686,1.248L11.73,13.876l-1.248-.686a6.409,6.409,0,0,1-1.068.443Zm-2.375-.879H8.358l.349-1.2.238-.064a5.515,5.515,0,0,0,1.318-.547l.214-.124,1.1.6,1.213-1.213-.6-1.1.124-.214a5.513,5.513,0,0,0,.547-1.318l.064-.238,1.2-.349V6.642l-1.2-.349-.064-.238a5.515,5.515,0,0,0-.547-1.318l-.124-.214.6-1.1L11.575,2.212l-1.1.6-.214-.124a5.515,5.515,0,0,0-1.318-.547L8.707,2.08,8.358.879H6.642l-.349,1.2-.238.064a5.515,5.515,0,0,0-1.318.547l-.214.124-1.1-.6L2.212,3.425l.6,1.1-.124.214a5.513,5.513,0,0,0-.547,1.318l-.064.238-1.2.349V8.358l1.2.349.064.238a5.515,5.515,0,0,0,.547,1.318l.124.214-.6,1.1,1.213,1.213,1.1-.6.214.124a5.513,5.513,0,0,0,1.318.547l.238.064Zm0,0" fill="#666"/><path d="M188.15,190.481a2.33,2.33,0,1,1,2.33-2.33A2.333,2.333,0,0,1,188.15,190.481Zm0-3.664a1.334,1.334,0,1,0,1.334,1.334A1.336,1.336,0,0,0,188.15,186.817Zm0,0" transform="translate(-180.651 -180.651)" fill="#666"/><path d="M129.142,132.465a3.322,3.322,0,1,1,3.322-3.322A3.326,3.326,0,0,1,129.142,132.465Zm0-5.879a2.557,2.557,0,1,0,2.557,2.557A2.56,2.56,0,0,0,129.142,126.586Zm0,0" transform="translate(-121.642 -121.642)" fill="#666"/></g></svg>