<svg xmlns="http://www.w3.org/2000/svg" width="14" height="14" viewBox="0 0 14 14"><path d="M6.334.315A.315.315,0,0,0,6.019,0H.315A.315.315,0,0,0,0,.315v5.7a.315.315,0,0,0,.315.315h5.7a.315.315,0,0,0,.315-.315ZM5.7,5.7H.63V.63H5.7Zm0,0"/><path d="M317.584.315A.315.315,0,0,0,317.269,0h-5.7a.315.315,0,0,0-.315.315v5.7a.315.315,0,0,0,.315.315h5.7a.315.315,0,0,0,.315-.315Zm-.63,5.388H311.88V.63h5.073Zm0,0" transform="translate(-303.584)"/><path d="M6.334,311.565a.315.315,0,0,0-.315-.315H.315a.315.315,0,0,0-.315.315v5.7a.315.315,0,0,0,.315.315h5.7a.315.315,0,0,0,.315-.315Zm-.63,5.357H.63V311.88H5.7Zm0,0" transform="translate(0 -303.584)"/><path d="M317.584,311.565a.315.315,0,0,0-.315-.315h-5.7a.315.315,0,0,0-.315.315v5.7a.315.315,0,0,0,.315.315h5.7a.315.315,0,0,0,.315-.315Zm-.63,5.357H311.88V311.88h5.073Zm0,0" transform="translate(-303.584 -303.584)"/></svg>