<svg xmlns="http://www.w3.org/2000/svg" width="13.322" height="14.274" viewBox="0 0 13.322 14.274"><g transform="translate(-357 -58.429)"><g transform="translate(357 58.429)"><g transform="translate(4.903 6.723)"><g transform="translate(0)"><path d="M137.453,161.8h-7.588a.416.416,0,1,0,0,.831h7.588a.416.416,0,0,0,0-.831Z" transform="translate(-129.45 -161.8)"/></g></g><g transform="translate(0 5.207)"><g transform="translate(0)"><path d="M13.382,125.3a1.932,1.932,0,1,0,1.932,1.932A1.931,1.931,0,0,0,13.382,125.3Zm0,3.033a1.1,1.1,0,1,1,1.1-1.1A1.1,1.1,0,0,1,13.382,128.333Z" transform="translate(-11.45 -125.3)"/></g></g><g transform="translate(4.903 1.529)"><g transform="translate(0)"><path d="M137.453,36.8h-7.588a.416.416,0,0,0,0,.831h7.588a.416.416,0,0,0,0-.831Z" transform="translate(-129.45 -36.8)"/></g></g><g transform="translate(0)"><g transform="translate(0)"><path d="M13.382,0a1.932,1.932,0,1,0,1.932,1.932A1.931,1.931,0,0,0,13.382,0Zm0,3.038a1.1,1.1,0,1,1,1.1-1.1A1.1,1.1,0,0,1,13.382,3.038Z" transform="translate(-11.45)"/></g></g><g transform="translate(4.903 11.918)"><g transform="translate(0)"><path d="M137.453,286.8h-7.588a.416.416,0,0,0,0,.831h7.588a.416.416,0,0,0,0-.831Z" transform="translate(-129.45 -286.8)"/></g></g><g transform="translate(0 10.409)"><g transform="translate(0)"><path d="M13.382,250.5a1.932,1.932,0,1,0,1.932,1.932A1.931,1.931,0,0,0,13.382,250.5Zm0,3.038a1.1,1.1,0,1,1,1.1-1.1A1.1,1.1,0,0,1,13.382,253.538Z" transform="translate(-11.45 -250.5)"/></g></g></g></g></svg>