<svg xmlns="http://www.w3.org/2000/svg" width="17.5" height="12.25" viewBox="0 0 17.5 12.25"><path d="M16.985,1.489A8.1,8.1,0,0,0,13.8.875c-3.368,0-6.736,1.7-10.1,1.7A8.3,8.3,0,0,1,1.165,2.2.935.935,0,0,0,.882,2.16.87.87,0,0,0,0,3.03v8.675a.87.87,0,0,0,.515.806,8.093,8.093,0,0,0,3.183.614c3.368,0,6.736-1.7,10.1-1.7a8.3,8.3,0,0,1,2.533.375.935.935,0,0,0,.283.044.87.87,0,0,0,.882-.87V2.295a.871.871,0,0,0-.515-.806ZM1.313,3.615a9.516,9.516,0,0,0,1.715.244A1.752,1.752,0,0,1,1.313,5.269V3.615Zm0,7.793V10.1a1.749,1.749,0,0,1,1.742,1.679,6.606,6.606,0,0,1-1.742-.372ZM8.75,9.625A2.436,2.436,0,0,1,6.563,7,2.436,2.436,0,0,1,8.75,4.375,2.436,2.436,0,0,1,10.938,7,2.436,2.436,0,0,1,8.75,9.625Zm7.438.76a9.4,9.4,0,0,0-1.485-.231,1.746,1.746,0,0,1,1.485-1.347Zm0-6.456a1.746,1.746,0,0,1-1.526-1.683,6.573,6.573,0,0,1,1.526.346Z" transform="translate(0 -0.875)"/></svg>